<svg xmlns="http://www.w3.org/2000/svg" viewBox="0 0 500 500"><g id="freepik--background-simple--inject-50"><path d="M226.78,463.85s80,12.84,142.74-43.37,80-147.62,95.92-221.23S447.52,60.17,385,39.19s-89.57,32.39-166.7,49.25S117.7,97.93,63.49,154.72s-41.71,164.44,27,232.92S226.78,463.85,226.78,463.85Z" style="fill:#37474F"></path><path d="M226.78,463.85s80,12.84,142.74-43.37,80-147.62,95.92-221.23S447.52,60.17,385,39.19s-89.57,32.39-166.7,49.25S117.7,97.93,63.49,154.72s-41.71,164.44,27,232.92S226.78,463.85,226.78,463.85Z" style="fill:#fff;opacity:0.7000000000000001"></path></g><g id="freepik--Shadow--inject-50"><ellipse cx="233.86" cy="446.89" rx="183.5" ry="12" style="fill:#263238"></ellipse></g><g id="freepik--Character--inject-50"><path d="M452.68,325.13s5,4.4,4.1,6.15-19,20.21-19,20.21l-3.22-4.68,10.25-18.46Z" style="fill:#fff;stroke:#263238;stroke-miterlimit:10"></path><path d="M428.78,302.37s22.14,19.54,22.14,20.71-8.2,8.79-8.2,8.79l-16.11-4.69.88-18.16" style="fill:#fff;stroke:#263238;stroke-miterlimit:10"></path><path d="M447.11,317.52l-6.73,14.93.88,2.05,13.18-11.13S451.51,317.22,447.11,317.52Z" style="fill:#fff;stroke:#263238;stroke-miterlimit:10"></path><path d="M370.21,331a9,9,0,0,1-6.12-1.48l-39.67-26.9a9,9,0,1,1,10.1-14.9l39.67,26.9a9,9,0,0,1-4,16.38Z" style="fill:#fff;stroke:#263238;stroke-linecap:round;stroke-linejoin:round"></path><path d="M350.67,333.45s2.43,4.38,3.4,5.62S360,341.4,360,341.4s5.23,13.72,6.25,16.17,3.18,6.7,4.19,7,8.39,3.65,10.15,1.31,1.48-10.58,1.48-10.58l-15-14.76L366,335.69Z" style="fill:#fff;stroke:#263238;stroke-miterlimit:10"></path><path d="M454.08,396.62a19,19,0,0,1-12.91-3.14l-85.94-58.26a19,19,0,1,1,21.32-31.45L462.49,362a19,19,0,0,1-8.41,34.6Z" style="fill:#37474F;stroke:#263238;stroke-miterlimit:10"></path><path d="M353.24,339.1s-2.24-5.79-2.53-6.37-2.11-3-1.82-3.74,1.15-1.15,2.49-.19,3.85,6.42,3.85,6.42,3.93-2,5.66-.28,2.11,6.34,2.11,6.34" style="fill:#fff;stroke:#263238;stroke-miterlimit:10"></path><path d="M238.66,130.51A103.51,103.51,0,1,0,353.7,221,103.51,103.51,0,0,0,238.66,130.51Zm23.11,193.73a91.59,91.59,0,1,1,80.1-101.8A91.6,91.6,0,0,1,261.77,324.24Z" style="fill:#fff;stroke:#263238;stroke-linecap:round;stroke-linejoin:round"></path><path d="M234.6,128.79a103.51,103.51,0,1,0,115,90.52A103.51,103.51,0,0,0,234.6,128.79Zm23.11,193.73a91.59,91.59,0,1,1,80.1-101.8A91.6,91.6,0,0,1,257.71,322.52Z" style="fill:#fff;stroke:#263238;stroke-linecap:round;stroke-linejoin:round"></path><path d="M386.61,273.65s-2.55,7.15-2.38,8.51.85,1.88,0,2.73-3.57,2.89-3.23,4.08a7,7,0,0,0,2,2.55s1.87,7.49,3.74,8.34,4.77.17,4.77.17l2,5.45,14.3-3.57-.85-8.68s4.25-8.17,3.23-13.11-9.87-9.7-15.66-9.7S387.12,272.29,386.61,273.65Z" style="fill:#fff;stroke:#263238;stroke-miterlimit:10"></path><path d="M386.7,293.58s2.23-.29,2.91-1.65" style="fill:none;stroke:#263238;stroke-miterlimit:10"></path><path d="M386.9,284.85c0,.59-.2,1.07-.44,1.07s-.43-.48-.43-1.07.19-1.07.43-1.07S386.9,284.26,386.9,284.85Z" style="fill:#263238"></path><path d="M385.83,282.43s1.26-1.55,2,.38" style="fill:none;stroke:#263238;stroke-miterlimit:10"></path><path d="M390,276.38s-5.62.34-6-4.94,7.32-8.17,10.21-8.17.85,2.9.85,2.9,7.15-2.05,9-.17.34,3.4.34,3.4,9.36,3.91,9.36,10.72-4.93,13.45-5.78,14.81-2.9,2.55-6.64,2.72-6-1.7-6.81-4.25l-.85-2.56s2.89-3.06,1.53-5.61-2.21-1-2.55,0,.34,2-.34,2-.17-.85-2-2.72-3.41-2.73-2.73-4.6A11.58,11.58,0,0,1,390,276.38Z" style="fill:#263238;stroke:#263238;stroke-miterlimit:10"></path><polygon points="389.51 304.65 387.48 309.14 413.32 303.26 410.33 299.53 389.51 304.65" style="fill:#fff;stroke:#263238;stroke-miterlimit:10"></polygon><path d="M399.89,458.05s-7.7,1.84-12.18,1.84-6.44-.23-6.44,1.26,7.13,4.25,11.26,5.86,12.18,3.91,12.87,3.68,2.07-8.62,2.07-8.62Z" style="fill:#fff;stroke:#263238;stroke-miterlimit:10"></path><path d="M381.73,460.28a.94.94,0,0,0-.46.87c0,1.5,7.13,4.25,11.26,5.86s12.18,3.91,12.87,3.68c.16-.05.35-.54.56-1.24C397.91,467.84,385.05,461.86,381.73,460.28Z" style="fill:#263238;stroke:#263238;stroke-miterlimit:10"></path><path d="M386.1,359.82a166.18,166.18,0,0,0,.69,16.66c.8,7.69,4.48,41.47,4.82,46.76s8.28,34.81,8.28,34.81l7.58,4s3.79-32.86,3.79-38.37v-9.19s6.66-26.09,8.73-32.29,3.1-18.5,2.88-25.39a59.59,59.59,0,0,1-19,4A79.12,79.12,0,0,1,386.1,359.82Z" style="fill:#263238;stroke:#263238;stroke-miterlimit:10"></path><path d="M428.09,312.19,425,337s-1.21,18.78-1.55,20.51-1.9,2.58-9,5-26.2.69-27.75-.87-1.89-16.71-1.89-16.71-2.07,8.79-3.62,10-7.41.69-10.17-1.89.52-32.23.34-35,16.89-9.48,16.89-9.48,23.71-5.44,25-5.31,14.43-2.61,15.46-.89,1.73,2.76,1.73,2.76" style="fill:#fff;stroke:#263238;stroke-miterlimit:10"></path><line x1="384.84" y1="344.94" x2="380.18" y2="322.36" style="fill:none;stroke:#263238;stroke-miterlimit:10"></line><line x1="410.01" y1="313.93" x2="399.3" y2="346.06" style="fill:none;stroke:#263238;stroke-miterlimit:10"></line><line x1="407.09" y1="334.86" x2="399.3" y2="354.34" style="fill:none;stroke:#263238;stroke-miterlimit:10"></line><path d="M369.81,345.82a2.12,2.12,0,0,0-.39,1.26c0,.77-1.54,7-.87,8.21s3.48,2.91,8,3.1,6.28-.48,6.67-1.65a49.1,49.1,0,0,0,1.35-7.54c-.09-.67-.67-.29-.67-.29a17.58,17.58,0,0,1-8.9-.48C370.49,346.88,369.81,345.82,369.81,345.82Z" style="fill:#fff;stroke:#263238;stroke-miterlimit:10"></path><path d="M386.67,366.36s.23,19.31.69,30.68,2.3,21.26,3,23.55,16.32,22.29,19.88,26.55,10.45,10.68,10.45,10.68l7.78-4.25s-10.08-14.36-13.29-21-8.85-17.69-8.85-17.69L409.88,383l5.86-3.21" style="fill:#263238;stroke:#263238;stroke-miterlimit:10"></path><polyline points="414.48 381.37 409.69 384.57 406.32 414.85 411.26 423.7" style="fill:none;stroke:#696969;stroke-miterlimit:10"></polyline><path d="M420.81,457.52s-3.7,5.49-5.1,6.76-6.89,4.6-7.66,5.36,3.45,1.41,6.51,1.41,6.89-.64,8.8-1.79,9.06-6.25,9.95-7.14-4.85-8.55-4.85-8.55Z" style="fill:#fff;stroke:#263238;stroke-miterlimit:10"></path><path d="M433.31,462.12c.31-.31-.16-1.4-.91-2.7-2.79,2.93-9,9.19-11.59,10-2.88.85-10.21.28-12.54.07l-.22.18c-.76.77,3.45,1.41,6.51,1.41s6.89-.64,8.8-1.79S432.42,463,433.31,462.12Z" style="fill:#263238;stroke:#263238;stroke-miterlimit:10"></path></g></svg>