<svg xmlns="http://www.w3.org/2000/svg" viewBox="0 0 500 500"><g id="freepik--background-simple--inject-270"><path d="M334,34.58s-77.4-27.52-153.37,16.3S66.3,181.67,33.38,251.34s-14,140.55,44,172.86,97.43-15.32,178.79-17.64S359.44,415.87,427,369.91s79.71-154.51,26.46-234.82S334,34.58,334,34.58Z" style="fill:#37474F"></path><path d="M334,34.58s-77.4-27.52-153.37,16.3S66.3,181.67,33.38,251.34s-14,140.55,44,172.86,97.43-15.32,178.79-17.64S359.44,415.87,427,369.91s79.71-154.51,26.46-234.82S334,34.58,334,34.58Z" style="fill:#fff;opacity:0.7000000000000001"></path></g><g id="freepik--Device--inject-270"><path d="M339.87,47.07H268.24l-3,5.52a18.58,18.58,0,0,1-32.5,0l-3-5.52H158.16a13.66,13.66,0,0,0-13.84,13.48V429.41a13.65,13.65,0,0,0,13.84,13.47H339.87a13.65,13.65,0,0,0,13.83-13.47V60.55A13.65,13.65,0,0,0,339.87,47.07Z" style="fill:#d6d6d6"></path><rect x="324.86" y="52.37" width="14.44" height="7.92" style="fill:none;stroke:#263238;stroke-linecap:round;stroke-linejoin:round;stroke-width:0.821067px"></rect><rect x="324.86" y="52.37" width="11.26" height="7.92" style="fill:#263238;stroke:#263238;stroke-linecap:round;stroke-linejoin:round;stroke-width:0.725073px"></rect><rect x="339.27" y="54.59" width="2.03" height="3.49" style="fill:#263238;stroke:#263238;stroke-linecap:round;stroke-linejoin:round;stroke-width:0.725073px"></rect><rect x="156.24" y="54.83" width="2.65" height="4.54" style="fill:#263238;stroke:#263238;stroke-linecap:round;stroke-linejoin:round;stroke-width:0.8830859999999999px"></rect><rect x="160.4" y="53.23" width="2.65" height="6.13" style="fill:#263238;stroke:#263238;stroke-linecap:round;stroke-linejoin:round;stroke-width:0.8830859999999999px"></rect><rect x="164.56" y="51.35" width="2.65" height="8.02" style="fill:#263238;stroke:#263238;stroke-linecap:round;stroke-linejoin:round;stroke-width:0.8830859999999999px"></rect><line x1="150.72" y1="63" x2="347.26" y2="63" style="fill:none;stroke:#263238;stroke-linecap:round;stroke-linejoin:round"></line><path d="M286.43,297.33c-.6-4.51-1.35-9.52-1.94-13.32a50.13,50.13,0,0,0,9.58-22.86c.6-4.61.49-12.76.06-21.78a9.89,9.89,0,0,0,3.22-4.33c2.07-5,9.06-20.54,1-25.18a6.62,6.62,0,0,0-4.69-1.06,41.61,41.61,0,0,1,2.8-9.87c4.24-9.43,12.26-18.38,9-31.58S288,147.08,283.7,152.74s-4.24,10.37-12.25,4.24-19.32-14.61-36.76-9.9-19.33,9-10.84,17.91c0,0-27.81-1.41-34.88,14.14-5,10.92,3.3,15.8,8.51,18.55a3.27,3.27,0,0,0-1.54,1.47l-14,27.14,3.51-36.3a4.17,4.17,0,0,0-8.22-1.29l-8.38,36.78-2.81-.36,1.76-36.84a4.08,4.08,0,0,0-8.1-.88l-5.66,37-5.1-.29V194.71a4.06,4.06,0,0,0-4.65-4V317.58l.69-1.28,2.65,2.05,13.9-19.11-5.41-2.77C161,288.3,168,276.05,168,276.05s13.59-2.43,17.5-9.38S192,251,196.74,244.53s9.12-9.12,10.85-14.33a.83.83,0,0,0,0-.15c2.21,5.23,6.37,10.35,8.2,12.71,2.52,3.24,5.85,4.55,7.3,2.9.13,1,.26,2.05.4,3.09,1.65,8.23,3.54,15.86,5.5,19.94a38.16,38.16,0,0,0,7,9.53,3.72,3.72,0,0,0-5.07,1.24,13.92,13.92,0,0,0-2.31,3.93c-3.66,8.69-11.87,19-11.19,25.15,0,.18,0,.45.06.77-9.48.82-33.69,3.16-37.36,6.09-2.63,2.11-20.83,19.53-35.84,34v71.75l31.86-19.36,5.45,41.12h143.2V302.71c-16-2.89-37.18-5.6-37.18-5.6Zm-78.14-78.6c-2,2-2.38,4.56-1.89,7.32-1.65-.44-4.44.5-7.49,2.84-5.65,4.35-11.29,9.12-11.29,9.12l10.51-26.57.26.22c4.12,3,9.11,4.49,11.24,5.93A10.18,10.18,0,0,0,208.29,218.73Z" style="opacity:0.2"></path><path d="M204.6,446.39H356.15V297.69c-16.91-3.06-39.36-5.93-39.36-5.93l-70.21,12.59s-38.74,2.9-43.58,6.78S143.36,368,143.36,368v68.22l55.43-33.68Z" style="fill:#fff"></path><path d="M300.89,433.56a.56.56,0,0,0,0,.79l8.46,8a.57.57,0,0,0,.38.15.58.58,0,0,0,.41-.17.56.56,0,0,0,0-.79l-8.46-8A.55.55,0,0,0,300.89,433.56Z" style="fill:#b2b2b2"></path><path d="M311.63,372.83a.56.56,0,0,0-.79,0l-5.52,5.91a.54.54,0,0,0-.13-.43.56.56,0,0,0-.79,0l-5.47,5a.57.57,0,0,0,0,.79.56.56,0,0,0,.79,0l4.44-4-.25.27a.56.56,0,0,0,.41.93.54.54,0,0,0,.4-.17l7-7.47A.55.55,0,0,0,311.63,372.83Z" style="fill:#b2b2b2"></path><path d="M305.71,334.57a.56.56,0,0,0-.78-.09l-7.47,6a.56.56,0,0,0-.08.78.54.54,0,0,0,.43.21.59.59,0,0,0,.35-.12l7.46-6A.56.56,0,0,0,305.71,334.57Z" style="fill:#b2b2b2"></path><path d="M205.16,327.33l7-7.46a.57.57,0,0,0,0-.79.57.57,0,0,0-.79,0l-7,7.47a.54.54,0,0,0,0,.78.53.53,0,0,0,.37.15A.55.55,0,0,0,205.16,327.33Z" style="fill:#b2b2b2"></path><path d="M294.82,361.85a.55.55,0,0,0,.41-.18.54.54,0,0,0,0-.78l-8.45-8a.56.56,0,0,0-.77.81l8.46,8A.57.57,0,0,0,294.82,361.85Z" style="fill:#b2b2b2"></path><path d="M278.4,381.75h.07a.56.56,0,0,0,.48-.63l-1.49-11.44a.55.55,0,1,0-1.1.14l1.49,11.45A.56.56,0,0,0,278.4,381.75Z" style="fill:#b2b2b2"></path><path d="M290.44,420.63l-7,7.46a.54.54,0,0,0,0,.78.54.54,0,0,0,.38.15.56.56,0,0,0,.4-.17l7-7.47a.55.55,0,0,0-.81-.75Z" style="fill:#b2b2b2"></path><path d="M203.76,383.74a.52.52,0,0,0,.21,0,.55.55,0,0,0,.3-.73l-5-11.94a.57.57,0,0,0-.73-.3.56.56,0,0,0-.3.73l5,11.94A.55.55,0,0,0,203.76,383.74Z" style="fill:#b2b2b2"></path><path d="M312.74,422.06a.59.59,0,0,0,.35-.12l7.46-6a.56.56,0,1,0-.69-.87l-7.47,6a.55.55,0,0,0-.08.78A.53.53,0,0,0,312.74,422.06Z" style="fill:#b2b2b2"></path><path d="M311.26,350.13a.56.56,0,0,0-.73-.3.55.55,0,0,0-.29.73l5,11.94a.56.56,0,0,0,.51.34.54.54,0,0,0,.22,0,.57.57,0,0,0,.3-.73Z" style="fill:#b2b2b2"></path><path d="M313.73,414.59h.08a.55.55,0,0,0,.47-.62l-1.49-11.45a.56.56,0,0,0-.62-.48.56.56,0,0,0-.48.63l1.49,11.44A.56.56,0,0,0,313.73,414.59Z" style="fill:#b2b2b2"></path><path d="M145.41,432.36a.54.54,0,0,0,0-.78.55.55,0,0,0-.78,0l-1.31,1.19v1.5Z" style="fill:#b2b2b2"></path><path d="M174,373.85a.55.55,0,0,0,0,.78l8.46,8a.55.55,0,0,0,.38.15.53.53,0,0,0,.4-.18.55.55,0,0,0,0-.78l-8.46-8A.57.57,0,0,0,174,373.85Z" style="fill:#b2b2b2"></path><path d="M184.76,349a.54.54,0,0,0-.78,0l-5.48,5a.56.56,0,0,0,0,.79.55.55,0,0,0,.41.18.53.53,0,0,0,.37-.15l5.48-5A.56.56,0,0,0,184.76,349Z" style="fill:#b2b2b2"></path><path d="M194.79,333.14a.55.55,0,0,0,.51.34.52.52,0,0,0,.21,0,.55.55,0,0,0,.3-.73L191.33,322l-.87.81Z" style="fill:#b2b2b2"></path><path d="M193.74,355.47a.56.56,0,0,0-.78-.09l-7.46,6a.56.56,0,0,0-.09.78.55.55,0,0,0,.44.21.54.54,0,0,0,.34-.12l7.47-6A.55.55,0,0,0,193.74,355.47Z" style="fill:#b2b2b2"></path><path d="M192.44,399.2l-5.48,5a.56.56,0,0,0,0,.79.55.55,0,0,0,.41.18.55.55,0,0,0,.37-.15l5.48-5a.56.56,0,0,0,0-.79A.55.55,0,0,0,192.44,399.2Z" style="fill:#b2b2b2"></path><path d="M166.44,402.65h.07A.56.56,0,0,0,167,402l-1.49-11.44a.56.56,0,0,0-1.11.14l1.5,11.45A.54.54,0,0,0,166.44,402.65Z" style="fill:#b2b2b2"></path><path d="M157,369.31a.55.55,0,0,0,.41-.18l7-7.46a.56.56,0,0,0-.82-.76l-7,7.47a.55.55,0,0,0,0,.78A.57.57,0,0,0,157,369.31Z" style="fill:#b2b2b2"></path><path d="M143.36,390.61l2.52-2a.56.56,0,0,0-.69-.87l-1.83,1.46Z" style="fill:#b2b2b2"></path><path d="M150.8,403.08a.54.54,0,0,0-.3.72l5,11.95a.57.57,0,0,0,.52.34.54.54,0,0,0,.21,0,.55.55,0,0,0,.3-.72l-5-11.95A.54.54,0,0,0,150.8,403.08Z" style="fill:#b2b2b2"></path><path d="M211.84,435.34a.55.55,0,0,0,.38.15.54.54,0,0,0,.4-.17l7-7.47a.55.55,0,1,0-.81-.75l-7,7.46A.55.55,0,0,0,211.84,435.34Z" style="fill:#b2b2b2"></path><path d="M254.53,437.21a.56.56,0,0,0-.72-.3.55.55,0,0,0-.3.73l3.64,8.75h1.21Z" style="fill:#b2b2b2"></path><path d="M230,440a.56.56,0,0,0-.79,0,.56.56,0,0,0,0,.79l5.91,5.57h1.62Z" style="fill:#b2b2b2"></path><path d="M322.08,385.77a.56.56,0,0,0-.79,0,.56.56,0,0,0,0,.79l8.45,8a.58.58,0,0,0,.39.15.56.56,0,0,0,.38-1Z" style="fill:#b2b2b2"></path><path d="M276.29,340a.56.56,0,0,0-.78,0l-7,7.47a.54.54,0,0,0,0,.78.55.55,0,0,0,.38.15.53.53,0,0,0,.4-.18l7-7.46A.56.56,0,0,0,276.29,340Z" style="fill:#b2b2b2"></path><path d="M230.63,341a.55.55,0,0,0,.41-.18.54.54,0,0,0,0-.78l-8.46-8a.54.54,0,0,0-.78,0,.55.55,0,0,0,0,.78l8.46,8A.55.55,0,0,0,230.63,341Z" style="fill:#b2b2b2"></path><path d="M229.14,417.08h.07a.56.56,0,0,0,.48-.63L228.2,405a.56.56,0,0,0-1.11.14l1.5,11.45A.54.54,0,0,0,229.14,417.08Z" style="fill:#b2b2b2"></path><path d="M339.74,411.14l-5.48,5a.55.55,0,0,0,.37,1,.59.59,0,0,0,.38-.14l5.47-5a.55.55,0,1,0-.74-.82Z" style="fill:#b2b2b2"></path><path d="M346.59,383a.56.56,0,0,0-.72-.3.55.55,0,0,0-.3.73l5,11.94a.55.55,0,0,0,.52.34.52.52,0,0,0,.21,0,.56.56,0,0,0,.3-.73Z" style="fill:#b2b2b2"></path><path d="M341,367.41a.55.55,0,0,0-.78-.08l-7.47,6a.55.55,0,0,0-.08.78.54.54,0,0,0,.43.21.57.57,0,0,0,.35-.12l7.46-6A.56.56,0,0,0,341,367.41Z" style="fill:#b2b2b2"></path><path d="M325.46,430.44a.57.57,0,0,0-.3.73l5,11.94a.56.56,0,0,0,.51.35.59.59,0,0,0,.22,0,.56.56,0,0,0,.3-.72l-5-11.95A.57.57,0,0,0,325.46,430.44Z" style="fill:#b2b2b2"></path><path d="M227.06,376.1a.56.56,0,0,0-.82-.76l-7,7.47a.55.55,0,0,0,0,.78.57.57,0,0,0,.38.15.55.55,0,0,0,.41-.18Z" style="fill:#b2b2b2"></path><path d="M256.44,369.9a.56.56,0,0,0-.78-.09l-7.46,6a.55.55,0,0,0,.35,1,.54.54,0,0,0,.34-.12l7.47-6A.55.55,0,0,0,256.44,369.9Z" style="fill:#b2b2b2"></path><path d="M255.14,413.63l-5.47,5a.56.56,0,0,0,.37,1,.57.57,0,0,0,.37-.14l5.47-5a.55.55,0,1,0-.74-.82Z" style="fill:#b2b2b2"></path><path d="M235.11,363.34a.53.53,0,0,0,.37-.15l5.48-5a.56.56,0,0,0,0-.79.55.55,0,0,0-.78,0l-5.47,5a.56.56,0,0,0,.37,1Z" style="fill:#b2b2b2"></path><path d="M261.27,385.16a.56.56,0,0,0-.3.73l5,11.94a.55.55,0,0,0,.51.34.52.52,0,0,0,.21,0,.55.55,0,0,0,.3-.73l-5-11.94A.57.57,0,0,0,261.27,385.16Z" style="fill:#b2b2b2"></path><path d="M241.51,313.67a.55.55,0,0,0-.78-.09l-7.46,6a.56.56,0,0,0-.09.78.55.55,0,0,0,.44.21.54.54,0,0,0,.34-.12l7.47-6A.55.55,0,0,0,241.51,313.67Z" style="fill:#b2b2b2"></path><path d="M246.34,328.93a.57.57,0,0,0-.3.73l5,11.94a.55.55,0,0,0,.51.34.49.49,0,0,0,.21,0,.55.55,0,0,0,.3-.73l-5-11.94A.57.57,0,0,0,246.34,328.93Z" style="fill:#b2b2b2"></path><path d="M241.08,428.53a.59.59,0,0,0,.35-.12l7.46-6a.55.55,0,1,0-.69-.86l-7.47,6a.55.55,0,0,0-.08.78A.54.54,0,0,0,241.08,428.53Z" style="fill:#b2b2b2"></path><path d="M214.21,360.85h.07a.56.56,0,0,0,.48-.63l-1.49-11.44a.55.55,0,1,0-1.1.14l1.49,11.45A.54.54,0,0,0,214.21,360.85Z" style="fill:#b2b2b2"></path><path d="M245.18,397a.55.55,0,0,0,.38.15.53.53,0,0,0,.4-.18.55.55,0,0,0,0-.78l-8.46-8a.56.56,0,0,0-.78,0,.54.54,0,0,0,0,.78Z" style="fill:#b2b2b2"></path><path d="M204.6,446.39H356.15V297.69c-16.91-3.06-39.36-5.93-39.36-5.93l-70.21,12.59s-38.74,2.9-43.58,6.78S143.36,368,143.36,368v68.22l55.43-33.68Z" style="fill:none;stroke:#263238;stroke-linecap:round;stroke-linejoin:round"></path><path d="M302.75,343.08s-10.65,19.86-16,37.29-14,66.82-14,66.82h47s4.84-62,13.07-83.29,9.2-25.17,9.2-25.17Z" style="fill:#37474F;stroke:#263238;stroke-linecap:round;stroke-linejoin:round"></path><path d="M255.56,331.72s23,21.15,49,29.68,43.63-10.36,45.19-16.86-44.08.54-64.11-6.14S253.33,324.3,255.56,331.72Z" style="fill:#263238;stroke:#263238;stroke-linecap:round;stroke-linejoin:round"></path><path d="M262.56,272.39s-4.36-4.36-8.23,4.84c-3.53,8.39-10.83,29.1-11.14,28.09,1.94,6.29-1,15.49,16,28.56s43.87,22.76,59.07,22.76c16.47,0,27.6-4.84,31.48-12.1s4.35-16,4.35-21.79-1.45-11.14-4.35-19.37-17.43-16.46-24.21-24.21S325,273.36,311,268s-32-2.9-37.28-1.94S262.56,272.39,262.56,272.39Z" style="fill:#263238;stroke:#263238;stroke-linecap:round;stroke-linejoin:round"></path><path d="M261.59,264.16S263.53,292.24,265,300s30.51,24.21,40.67,23.24,11.62-15.49,10.66-24.69-3.88-27.12-3.88-27.12-27.11,8.72-36.8,1S261.59,264.16,261.59,264.16Z" style="fill:#fff;stroke:#263238;stroke-linecap:round;stroke-linejoin:round"></path><path d="M265.24,294.1a176.94,176.94,0,0,0,37.49-9.49l10.53-8c-.49-3.11-.83-5.2-.83-5.2s-27.11,8.72-36.8,1-14-8.23-14-8.23,1.31,19,2.58,30C264.53,294.16,264.88,294.15,265.24,294.1Z" style="fill:#263238;stroke:#263238;stroke-linecap:round;stroke-linejoin:round"></path><path d="M346.76,298.49c.47,4,.13,11.95-9.15,14.09-12.59,2.9-41.64,0-61.49-9.69C259,294.57,257,277.65,256.78,273.08a14.75,14.75,0,0,0-2.45,4.15c-3.88,9.2-12.56,20.09-11.84,26.63.27,2.4-.27,16.95,16.68,30s43.87,22.76,59.07,22.76c16.47,0,27.6-4.84,31.48-12.1s4.35-16,4.35-21.79-1.45-11.14-4.35-19.37A16.83,16.83,0,0,0,346.76,298.49Z" style="fill:#37474F;stroke:#263238;stroke-linecap:round;stroke-linejoin:round"></path><path d="M348.14,322a46.5,46.5,0,0,0,3.76-4.39" style="fill:none;stroke:#263238;stroke-linecap:round;stroke-linejoin:round"></path><path d="M249.8,286.93s-5.33,15.54,18.2,36.41c20.23,17.94,53.94,19.14,74.83,3.3" style="fill:none;stroke:#263238;stroke-linecap:round;stroke-linejoin:round"></path><path d="M250.24,298.92s-.89,27.52,27.08,46.17" style="fill:none;stroke:#263238;stroke-linecap:round;stroke-linejoin:round"></path><path d="M249.25,151.9s-29.44-1.5-36.93,15,13.48,20,13,22.45-8.49,8-3,12,12.48,5.48,13,7.48,4.49,10.48,4.49,10.48,5,3,8.48,1,2.49-11,5.49-15.47,3-10,13-17.47,33.43-8,37.42-6.48,10,2,12.48,6,2,24.44,4,24.44,1-13.47,5.49-23.45,13-19.46,9.48-33.43-18.46-21.45-22.95-15.46-4.5,11-13,4.49S279.19,128,260.72,132.94,240.27,142.42,249.25,151.9Z" style="fill:#263238;stroke:#263238;stroke-linecap:round;stroke-linejoin:round"></path><path d="M263.86,138.14a20.1,20.1,0,0,0-4-1" style="fill:none;stroke:#7d7d7d;stroke-linecap:round;stroke-linejoin:round"></path><path d="M283.59,174.27s10.19-5.22,10.19-13c0-9-13-16.48-23-20.61" style="fill:none;stroke:#7d7d7d;stroke-linecap:round;stroke-linejoin:round"></path><path d="M280.91,175.16s3.29-11.37-8.49-17c-8.39-4-18.78-4.47-18.78-4.47" style="fill:none;stroke:#7d7d7d;stroke-linecap:round;stroke-linejoin:round"></path><path d="M223.93,167.52c-1.29,0-2.42,0-3.37,0" style="fill:none;stroke:#7d7d7d;stroke-linecap:round;stroke-linejoin:round"></path><path d="M272,171.14s-5.81-6.71-20.57-5.37c-9.05.83-16.59,1.31-22.31,1.57" style="fill:none;stroke:#7d7d7d;stroke-linecap:round;stroke-linejoin:round"></path><path d="M317.44,161.33a29.54,29.54,0,0,0,3.7-3.16c6.26-6.25,0-15.2,0-15.2" style="fill:none;stroke:#7d7d7d;stroke-linecap:round;stroke-linejoin:round"></path><path d="M308.18,165.77a23.55,23.55,0,0,0,5.78-2.26" style="fill:none;stroke:#7d7d7d;stroke-linecap:round;stroke-linejoin:round"></path><path d="M246.89,184.9s-11.65,10.35-17.47,11.64" style="fill:none;stroke:#7d7d7d;stroke-linecap:round;stroke-linejoin:round"></path><path d="M317.93,205.78s1.58-11.29,10.15-6.38,1.17,21.4-1,26.65-6.75,7.52-8.06,2.7S317.93,205.78,317.93,205.78Z" style="fill:#fff;stroke:#263238;stroke-linecap:round;stroke-linejoin:round"></path><path d="M244.26,212.27s-4.49-10.48-11.48-3.49,4.49,21,8,25.45,8.48,5.49,8.48.5S244.26,212.27,244.26,212.27Z" style="fill:#fff;stroke:#263238;stroke-linecap:round;stroke-linejoin:round"></path><path d="M245.48,205.13s3.27,44.07,9.26,56.54,26.94,27.94,40.91,27.44,26-20,27.94-35.42-3.49-68.86-3.49-68.86-4.49-15.47-12.47-16.47-16.47,7-24.95,7.49-15-8-23.95-4.49-13,11-9.48,14,7,5.49,3,11S245.48,205.13,245.48,205.13Z" style="fill:#fff;stroke:#263238;stroke-linecap:round;stroke-linejoin:round"></path><path d="M317.11,194.31s-2.5-3-8-3a17.25,17.25,0,0,0-9.48,3" style="fill:none;stroke:#263238;stroke-linecap:round;stroke-linejoin:round;stroke-width:3px"></path><path d="M278.69,199.3s-10.48-4.49-18.47,4.49" style="fill:none;stroke:#263238;stroke-linecap:round;stroke-linejoin:round;stroke-width:3px"></path><path d="M274.2,213.52c0,2.62-1.23,4.74-2.75,4.74s-2.74-2.12-2.74-4.74,1.23-4.74,2.74-4.74S274.2,210.9,274.2,213.52Z" style="fill:#263238"></path><path d="M306.63,209.53c0,2.62-1.23,4.74-2.75,4.74s-2.74-2.12-2.74-4.74,1.23-4.74,2.74-4.74S306.63,206.91,306.63,209.53Z" style="fill:#263238"></path><line x1="265.21" y1="220.26" x2="275.19" y2="220.76" style="fill:none;stroke:#263238;stroke-linecap:round;stroke-linejoin:round"></line><line x1="304.63" y1="218.76" x2="312.62" y2="214.77" style="fill:none;stroke:#263238;stroke-linecap:round;stroke-linejoin:round"></line><path d="M323.59,253.69c.78-6,.43-17.68-.29-29.75a48.52,48.52,0,0,1-2.2,11.29c-2.5,7-2.5,9.48-4,11s-3-2-5.49-5.49-24.95,0-24.95,0c-2.5-.5-14.47,1.5-20,3.5s-6.49,8.48-6,11-5.48-3.49-8.48-12-6-23.45-6-23.45,1.26,10,2.66,20.81c1.74,8.71,3.76,16.79,5.83,21.1,6,12.47,26.94,27.94,40.91,27.44S321.6,269.15,323.59,253.69Z" style="fill:#263238;stroke:#263238;stroke-linecap:round;stroke-linejoin:round"></path><path d="M264.77,272.74s6.16,8.07,18.5,13.29" style="fill:none;stroke:#7d7d7d;stroke-linecap:round;stroke-linejoin:round"></path><path d="M280.68,253.69s3.49,6.48,11,7.48,9.48-10.48,9.48-10.48l-19.46,1S279.68,250.69,280.68,253.69Z" style="fill:#fff;stroke:#263238;stroke-linecap:round;stroke-linejoin:round"></path><path d="M278.69,251.69s2,12,12.47,14,13-16,13-16Z" style="fill:#fff;stroke:#263238;stroke-linecap:round;stroke-linejoin:round"></path><path d="M285.43,252.14s1,5.88,6.12,6.86,6.37-7.84,6.37-7.84Z" style="fill:#263238;stroke:#263238;stroke-linecap:round;stroke-linejoin:round"></path><path d="M309.12,248.2s-12.47,5.49-20,5.49a60.19,60.19,0,0,1-15.46-2.5s14-4,20.45-4S309.12,248.2,309.12,248.2Z" style="fill:#fff;stroke:#263238;stroke-linecap:round;stroke-linejoin:round"></path><path d="M298.15,197.3s-6,8.49-5.49,10,8,27.95,4.49,31.94-9,3.49-13,1-8-6.48-6.48-8.48a7.33,7.33,0,0,1,4-2.49" style="fill:#fff;stroke:#263238;stroke-linecap:round;stroke-linejoin:round"></path><path d="M148.83,290.8l8.4-21.33s1-2-3.15-7.49-2.49-11.63.27-23.13c2.34-9.77,6-45.45,7.07-55.93a4.26,4.26,0,0,1,3.12-3.7h0a4.3,4.3,0,0,1,5.44,4.14v31.13l5.4.31,6-39.19a4.31,4.31,0,0,1,4-3.61h0a4.33,4.33,0,0,1,4.56,4.55l-1.86,39,3,.38L199.93,177a4.41,4.41,0,0,1,4.8-3.44h0a4.42,4.42,0,0,1,3.91,4.81l-3.72,38.43,14.78-28.73a3.48,3.48,0,0,1,4.05-1.75h0a3.47,3.47,0,0,1,2.28,4.62L210.9,229.2s6-5.06,11.95-9.66,11-4.13,9.19,1.38-6.43,8.28-11.49,15.17-7.82,16.09-12,23.45-18.53,9.93-18.53,9.93-15.95,28.23-17.33,29.15Z" style="fill:#fff;stroke:#263238;stroke-linecap:round;stroke-linejoin:round"></path><line x1="165.44" y1="214.29" x2="207.81" y2="217.25" style="fill:none;stroke:#263238;stroke-linecap:round;stroke-linejoin:round"></line><path d="M178.58,264.21s-4.46-8.81,6.11-22.14,16.55-11.49,16.55-11.49" style="fill:#fff;stroke:#263238;stroke-linecap:round;stroke-linejoin:round"></path><polygon points="141.63 356.04 168.14 307.81 144.24 286.66 141.63 288.76 141.63 356.04" style="fill:#fff"></polygon><path d="M144,311.09a.55.55,0,0,0,.35-.12l7.47-6a.56.56,0,0,0-.7-.87l-7.46,6a.56.56,0,0,0-.09.78A.54.54,0,0,0,144,311.09Z" style="fill:#b2b2b2"></path><path d="M157.49,319.77a.56.56,0,0,0-.72-.3.56.56,0,0,0-.3.73l2.1,5,.68-1.24Z" style="fill:#b2b2b2"></path><polygon points="141.63 356.04 168.14 307.81 144.24 286.66 141.63 288.76 141.63 356.04" style="fill:none;stroke:#263238;stroke-linecap:round;stroke-linejoin:round"></polygon><polygon points="148.37 276.09 141.63 285.9 141.63 293.41 168.6 314.25 183.31 294.02 148.37 276.09" style="fill:#fff;stroke:#263238;stroke-linecap:round;stroke-linejoin:round"></polygon><circle cx="198.99" cy="415.18" r="14.26" transform="translate(-40.05 21.7) rotate(-5.67)" style="fill:#fff;stroke:#263238;stroke-linecap:round;stroke-linejoin:round;stroke-width:0.724166px"></circle><path d="M199,418.71h0a2.88,2.88,0,0,1-2.88-2.88v-9.12a2.88,2.88,0,0,1,2.88-2.88h0a2.88,2.88,0,0,1,2.87,2.88v9.12A2.88,2.88,0,0,1,199,418.71Z" style="fill:#263238"></path><path d="M199,420.78a5.1,5.1,0,0,1-5.09-5.09v-4.28a.53.53,0,0,1,.53-.53.52.52,0,0,1,.52.53v4.28a4,4,0,0,0,8.07,0v-4.28a.53.53,0,1,1,1.06,0v4.28A5.1,5.1,0,0,1,199,420.78Z" style="fill:#263238"></path><path d="M199,426.25a.53.53,0,0,1-.53-.53v-5.47a.53.53,0,0,1,1.06,0v5.47A.53.53,0,0,1,199,426.25Z" style="fill:#263238"></path><path d="M202.5,426.53h-7A.53.53,0,0,1,195,426a.52.52,0,0,1,.53-.52h7a.52.52,0,0,1,.52.52A.52.52,0,0,1,202.5,426.53Z" style="fill:#263238"></path><circle cx="293.4" cy="415.18" r="14.26" transform="translate(-88.03 79.07) rotate(-13.37)" style="fill:#fff;stroke:#263238;stroke-linecap:round;stroke-linejoin:round;stroke-width:0.724166px"></circle><path d="M302.19,411,298,413.41v-2a1.7,1.7,0,0,0-1.7-1.7h-9.41a1.7,1.7,0,0,0-1.7,1.7V419a1.7,1.7,0,0,0,1.7,1.7h9.41A1.7,1.7,0,0,0,298,419v-2l4.16,2.41Z" style="fill:#263238"></path><circle cx="246.19" cy="415.18" r="14.26" transform="translate(-89.31 68.16) rotate(-13.37)" style="fill:#263238;stroke:#263238;stroke-linecap:round;stroke-linejoin:round;stroke-width:0.724166px"></circle><path d="M253.41,412.17H239a2.72,2.72,0,0,0-2.68,3.22l.42,2.25a.67.67,0,0,0,.66.55h4.35a.67.67,0,0,0,.67-.67v-2.45H250v2.45a.67.67,0,0,0,.67.67H255a.67.67,0,0,0,.66-.55l.42-2.25A2.72,2.72,0,0,0,253.41,412.17Z" style="fill:#37474F"></path><path d="M363.9,173.84a1.46,1.46,0,0,0,1.47-1.46V133.05a1.46,1.46,0,0,0-1.47-1.46h-3.82V56.47A18.88,18.88,0,0,0,341.2,37.58H156.82a18.88,18.88,0,0,0-18.88,18.89V444.12A18.88,18.88,0,0,0,156.82,463H341.2a18.88,18.88,0,0,0,18.88-18.88V207.65h3.82a1.47,1.47,0,0,0,1.47-1.46v-17.5a1.46,1.46,0,0,0-1.47-1.46h-3.82V173.84ZM353.7,429.41a13.65,13.65,0,0,1-13.83,13.47H158.16a13.65,13.65,0,0,1-13.84-13.47V60.55a13.66,13.66,0,0,1,13.84-13.48h71.62l3,5.52a18.58,18.58,0,0,0,32.5,0l3-5.52h71.63A13.65,13.65,0,0,1,353.7,60.55Z" style="fill:#263238;stroke:#263238;stroke-linecap:round;stroke-linejoin:round"></path><path d="M253.94,49.18A4.93,4.93,0,1,0,249,54.11,4.93,4.93,0,0,0,253.94,49.18Z" style="fill:#fff;stroke:#263238;stroke-linecap:round;stroke-linejoin:round"></path></g><g id="freepik--Character--inject-270"><rect x="159.65" y="71.55" width="60.85" height="104.75" style="fill:#fff;stroke:#fff;stroke-linecap:round;stroke-linejoin:round;stroke-width:3px"></rect><path d="M220.5,176.3v-32a8.7,8.7,0,0,0-1.71-1.72c-5.09-3.85-20.91-1.87-23.9-1.7s-7.4.16-7.4.16-8.8.31-16.2.62a14.79,14.79,0,0,0-11.2,6.35V176.3Z" style="fill:#37474F;stroke:#263238;stroke-linecap:round;stroke-linejoin:round"></path><path d="M181,141.08a9.76,9.76,0,0,0-8,8.48c-1.08,7.56,1.54,12.19,7.71,16.35A84.92,84.92,0,0,1,191,174.08s13.11-11.1,15.11-18.2-.92-13.26-4.16-14.34S181,141.08,181,141.08Z" style="fill:#a3a3a3;stroke:#263238;stroke-miterlimit:10"></path><polygon points="220.5 176.3 220.5 168.81 218.02 169.46 217.17 176.3 220.5 176.3" style="fill:#a3a3a3;stroke:#263238;stroke-miterlimit:10"></polygon><polygon points="166.27 176.3 165.74 174.08 160.09 173.52 160.09 176.3 166.27 176.3" style="fill:#a3a3a3;stroke:#263238;stroke-miterlimit:10"></polygon><path d="M162.66,160.05l3.12,13.4" style="fill:none;stroke:#263238;stroke-miterlimit:10"></path><path d="M218,128c.54-.42,1.51-1,2.53-1.78V96.74c-1.14-1-2.94-1.58-3.35-2.86-.62-1.9,1.44-4.44,0-6.77s-7-.21-9.67-.85-3.29-1.9-4.31-4.23S198.23,80.76,197,81s3.08-4,.82-6.56-9.67-.21-10.49,2.33-3.91,0-4.73-2.12-6.78-4-6.78-.21a5.29,5.29,0,0,0,1.53,3.85c-1.95-1.23-5.08-2.76-7.09-1.52-3.08,1.9,1.65,4.44,1.65,4.44h-5.76a14.28,14.28,0,0,0-6.06,1.71v7.83h.1l-.1,0v48.4c2.2,0,3.8-.67,3.8.44,0,1.69.62,4.86,3.91,3.6s6-3.6,6-1.91,1.64,4.87,3.7,4,3.5-5.08,4.73-3.17,4.32,4.86,6.38,2.75,3.08-3.81,5.55-.64,5.55,3.81,6.37.64,2.68-1.69,5.76,0,7.61.84,7.61-2.33-1.65-5.92.41-6.35,6.17-1.69,5.14-3.81S216.33,129.22,218,128Z" style="fill:#263238"></path><path d="M217.36,174.06q.94-7.55,1.9-15.09" style="fill:none;stroke:#263238;stroke-miterlimit:10"></path><path d="M181.63,152.34s.46-8.18.46-11v-6.48l14.8-.93s.77,11.57,3.86,16.35" style="fill:#a3a3a3;stroke:#263238;stroke-miterlimit:10"></path><path d="M171.74,117.48s-3.15,3.45-3.15,4.63,2.17,4.33,3.84,4.82,2.26-.68,2.26-1.37S171.74,117.48,171.74,117.48Z" style="fill:#a3a3a3;stroke:#263238;stroke-linecap:round;stroke-linejoin:round"></path><path d="M203.22,116.1s4.25,1.93,4.72,3-.29,4.83-1.64,5.94a1.56,1.56,0,0,1-2.62-.37C203.41,124.05,203.22,116.1,203.22,116.1Z" style="fill:#a3a3a3;stroke:#263238;stroke-miterlimit:10"></path><path d="M176.53,98.07s-5.71,3.73-6.37,9,4,22.17,5.93,25,12.73,9.43,15.8,9,10.32-10.32,11.64-12.52.22-18.65-.88-25.68-8.78-8.56-16-8.56S176.53,98.07,176.53,98.07Z" style="fill:#a3a3a3;stroke:#263238;stroke-linecap:round;stroke-linejoin:round"></path><path d="M184.06,115.11c0,1-.51,1.86-1.15,1.86s-1.15-.84-1.15-1.86.52-1.87,1.15-1.87S184.06,114.08,184.06,115.11Z" style="fill:#263238"></path><path d="M196.38,113.68c0,1-.51,1.86-1.15,1.86s-1.15-.83-1.15-1.86.52-1.86,1.15-1.86S196.38,112.65,196.38,113.68Z" style="fill:#263238"></path><path d="M191,111.85s-.47,5.64.79,6,2.35,3.13,0,4.07-3.45-.15-3.77-1.25" style="fill:none;stroke:#263238;stroke-linecap:round;stroke-linejoin:round"></path><line x1="179.68" y1="117.96" x2="183.91" y2="117.81" style="fill:none;stroke:#263238;stroke-linecap:round;stroke-linejoin:round;stroke-width:0.5px"></line><line x1="194.88" y1="116.55" x2="198.49" y2="114.83" style="fill:none;stroke:#263238;stroke-linecap:round;stroke-linejoin:round;stroke-width:0.5px"></line><path d="M174.55,96.32s3.73,1.09,2.42,2.85-3.95,4.61-2,5,2.42.88,1.1,1.31-3.73,2.42-.22,2.86,5-.44,6.15-3.51,1.09-2.2,3.73-.66,4.61-3.29,3.51-5-2.85-.44-2.63-3.07a7.71,7.71,0,0,1,1.53-4.17l3.29,2s-2.63,2.2-.65,4.17,4.39,2.42,2.85,2.86-3.73,3.07-.88,3.51,4.83-1.54,4.83-3.3-1.32-3.51,0-4.82l2.85-2.86S200,90,192.11,88.63s-14.26,2-15.58,3.3S174.55,96.32,174.55,96.32Z" style="fill:#263238"></path><path d="M182,126.12s3.28,4.47,5.22,5.55,5.81.67,7.57-.75,3.11-6.44,3.11-6.44a23.05,23.05,0,0,1-8.46,2.19A29.31,29.31,0,0,1,182,126.12Z" style="fill:#a6a6a6;stroke:#263238;stroke-miterlimit:10;stroke-width:0.5px"></path><path d="M185.52,127.47a6,6,0,0,0,4.65,2.2,6.6,6.6,0,0,0,5.78-4.34l-12,1.14Z" style="fill:#fff;stroke:#263238;stroke-linecap:round;stroke-linejoin:round"></path><path d="M198.23,123.82a5.61,5.61,0,0,1-3.16.92,21,21,0,0,0-4.39.75,7.68,7.68,0,0,0-3.65.14,18.9,18.9,0,0,1-5.57.07s2.61,1.78,8.93,1.31C197.62,126.48,198.23,123.82,198.23,123.82Z" style="fill:gray;stroke:#263238;stroke-miterlimit:10;stroke-width:0.5px"></path><path d="M177.22,111.46a8.2,8.2,0,0,1,3.16-2.49c2.69-1.31,4.35-.66,4.35-.66" style="fill:none;stroke:#263238;stroke-linecap:round;stroke-miterlimit:10;stroke-width:2px"></path><path d="M191.75,106.51a6.87,6.87,0,0,1,5.31-.52,4.94,4.94,0,0,1,2.27,1.53" style="fill:none;stroke:#263238;stroke-linecap:round;stroke-miterlimit:10;stroke-width:2px"></path></g></svg>