<svg xmlns="http://www.w3.org/2000/svg" viewBox="0 0 500 500"><g id="freepik--background-simple--inject-130"><path d="M235.32,82c-48.18,9.72-91.91,40-119.24,81.77-10.71,16.36-19.16,35.08-19.26,54.77-.15,28.58,17.64,54.79,40.35,71.44s50,25.29,76.82,33.22c.28,18,3.12,36,14.19,50,11.91,15,32.58,19.42,51.5,19.21,24.25-.28,48.58-6.62,69.3-19.5s37.67-32.42,46.42-55.55C408.12,283.73,403,246,396,210.68c-4.71-24-10.23-48.05-20.15-70.33-7.35-16.51-17.92-31.55-31.75-42.9C313.36,72.21,253.6,78.35,235.32,82Z" style="fill:#37474F"></path><g style="opacity:0.9"><path d="M235.32,82c-48.18,9.72-91.91,40-119.24,81.77-10.71,16.36-19.16,35.08-19.26,54.77-.15,28.58,17.64,54.79,40.35,71.44s50,25.29,76.82,33.22c.28,18,3.12,36,14.19,50,11.91,15,32.58,19.42,51.5,19.21,24.25-.28,48.58-6.62,69.3-19.5s37.67-32.42,46.42-55.55C408.12,283.73,403,246,396,210.68c-4.71-24-10.23-48.05-20.15-70.33-7.35-16.51-17.92-31.55-31.75-42.9C313.36,72.21,253.6,78.35,235.32,82Z" style="fill:#fff"></path></g></g><g id="freepik--Device--inject-130"><path d="M388.86,118.38h-8.34a14.28,14.28,0,0,1,14.41,15.2L381.65,386.83a16.21,16.21,0,0,1-16,15.2H374a16.21,16.21,0,0,0,16-15.2l13.27-253.25A14.28,14.28,0,0,0,388.86,118.38Z" style="fill:#37474F"></path><path d="M388.86,118.38h-8.34a14.28,14.28,0,0,1,14.41,15.2L381.65,386.83a16.21,16.21,0,0,1-16,15.2H374a16.21,16.21,0,0,0,16-15.2l13.27-253.25A14.28,14.28,0,0,0,388.86,118.38Z" style="fill:#fff;opacity:0.1"></path><path d="M371.51,402H269.36A14.28,14.28,0,0,1,255,386.83l13.27-253.25a16.21,16.21,0,0,1,16-15.2H386.37a14.28,14.28,0,0,1,14.41,15.2L387.51,386.83A16.21,16.21,0,0,1,371.51,402Z" style="fill:#37474F"></path><path d="M371.51,402H269.36A14.28,14.28,0,0,1,255,386.83l13.27-253.25a16.21,16.21,0,0,1,16-15.2H386.37a14.28,14.28,0,0,1,14.41,15.2L387.51,386.83A16.21,16.21,0,0,1,371.51,402Z" style="fill:#fff;opacity:0.4"></path><path d="M284.59,123.26a11.28,11.28,0,0,0-11.13,10.58L260.19,387.08a9.39,9.39,0,0,0,9.53,10.07H371.87A11.29,11.29,0,0,0,383,386.57l13.27-253.24a9.39,9.39,0,0,0-9.54-10.07Z" style="fill:#263238"></path><path d="M326.5,300.57c5.14,0,7.21,7.76,9.06,12.62a10.41,10.41,0,0,0,3,3.85,16.06,16.06,0,0,0-4.08,4.55c-2.84,4.83-6.18,11.92-10.85,11.92s-6.77-7.09-8.77-11.92a12.49,12.49,0,0,0-3.28-4.55,13.56,13.56,0,0,0,3.67-3.85C317.94,308.33,321.36,300.57,326.5,300.57Z" style="fill:#37474F"></path><path d="M271.84,312.64c1.75,0,2.49,2.08,3.15,3.39a3.24,3.24,0,0,0,1,1,4.66,4.66,0,0,0-1.35,1.23c-.94,1.29-2,3.19-3.61,3.19s-2.34-1.9-3-3.19a3.77,3.77,0,0,0-1.14-1.23,4.05,4.05,0,0,0,1.21-1C269,314.72,270.1,312.64,271.84,312.64Z" style="fill:#37474F"></path><path d="M379.32,312.64c1.74,0,2.49,2.08,3.15,3.39a3.14,3.14,0,0,0,1,1,4.76,4.76,0,0,0-1.36,1.23c-.93,1.29-2,3.19-3.6,3.19s-2.34-1.9-3.05-3.19a3.65,3.65,0,0,0-1.14-1.23,4.16,4.16,0,0,0,1.22-1C376.47,314.72,377.58,312.64,379.32,312.64Z" style="fill:#37474F"></path><path d="M294.94,308.11c6.91,0,10.22,4.2,13.05,6.84a14.13,14.13,0,0,0,4.29,2.09,19,19,0,0,0-5.16,2.47c-3.48,2.62-7.47,6.46-13.75,6.46s-9.59-3.84-12.61-6.46A15.56,15.56,0,0,0,276,317a17.22,17.22,0,0,0,4.66-2.09C284,312.31,288,308.11,294.94,308.11Z" style="fill:#37474F"></path><path d="M357,308.11c6.91,0,10.23,4.2,13.05,6.84a14.13,14.13,0,0,0,4.29,2.09,19.16,19.16,0,0,0-5.16,2.47c-3.48,2.62-7.47,6.46-13.74,6.46s-9.59-3.84-12.62-6.46a15.56,15.56,0,0,0-4.73-2.47,17.22,17.22,0,0,0,4.66-2.09C346.06,312.31,350.11,308.11,357,308.11Z" style="fill:#37474F"></path><g style="opacity:0.2"><path d="M313.29,305.9c3.48,0,4.88,5.26,6.14,8.55a7,7,0,0,0,2,2.61,10.93,10.93,0,0,0-2.77,3.09c-1.93,3.28-4.19,8.08-7.36,8.08s-4.59-4.8-5.94-8.08a8.53,8.53,0,0,0-2.22-3.09,9.08,9.08,0,0,0,2.48-2.61C307.48,311.16,309.8,305.9,313.29,305.9Z" style="fill:#fff"></path></g><g style="opacity:0.2"><path d="M294.24,314.62a13,13,0,0,1,6.72,1.87,10.62,10.62,0,0,0,2.21.57,13.78,13.78,0,0,0-2.56.68,15.4,15.4,0,0,1-6.8,1.77,13.51,13.51,0,0,1-6.5-1.77,12,12,0,0,0-2.43-.68,12,12,0,0,0,2.3-.57A14.91,14.91,0,0,1,294.24,314.62Z" style="fill:#fff"></path></g><g style="opacity:0.2"><path d="M276.12,316a27.31,27.31,0,0,1,6.82.82c.68.14,2.23.24,2.23.24s-1.52.11-2.52.3a31.14,31.14,0,0,1-6.71.76,29.43,29.43,0,0,1-6.59-.76c-1-.19-2.46-.3-2.46-.3s1.57-.1,2.27-.24A29.16,29.16,0,0,1,276.12,316Z" style="fill:#fff"></path></g><g style="opacity:0.2"><path d="M356.62,314.62a14.91,14.91,0,0,0-7.06,1.87,12,12,0,0,1-2.3.57,12,12,0,0,1,2.43.68,13.51,13.51,0,0,0,6.5,1.77,15.4,15.4,0,0,0,6.8-1.77,13.78,13.78,0,0,1,2.56-.68,10.62,10.62,0,0,1-2.21-.57A13,13,0,0,0,356.62,314.62Z" style="fill:#fff"></path></g><g style="opacity:0.2"><path d="M374.49,316a29.08,29.08,0,0,0-7,.82c-.71.14-2.28.24-2.28.24s1.51.11,2.47.3a29.25,29.25,0,0,0,6.58.76,31.25,31.25,0,0,0,6.72-.76c1-.19,2.52-.3,2.52-.3s-1.56-.1-2.24-.24A27.22,27.22,0,0,0,374.49,316Z" style="fill:#fff"></path></g><g style="opacity:0.2"><path d="M339.09,305.9c3.49,0,4.88,5.26,6.14,8.55a7,7,0,0,0,2,2.61,10.93,10.93,0,0,0-2.77,3.09c-1.92,3.28-4.19,8.08-7.35,8.08s-4.59-4.8-5.95-8.08a8.4,8.4,0,0,0-2.22-3.09,9.08,9.08,0,0,0,2.48-2.61C333.28,311.16,335.6,305.9,339.09,305.9Z" style="fill:#fff"></path></g><g style="opacity:0.2"><path d="M325.43,314.62c1.43,0,2.09,1.15,2.66,1.87a2.51,2.51,0,0,0,.88.57,3.69,3.69,0,0,0-1.09.68c-.73.72-1.58,1.77-2.88,1.77s-2-1.05-2.58-1.77a2.88,2.88,0,0,0-1-.68,3.06,3.06,0,0,0,1-.57C323.13,315.77,324,314.62,325.43,314.62Z" style="fill:#fff"></path></g><g style="opacity:0.1"><path d="M325.74,397.15H285l38.4-273.89h32.79a10.13,10.13,0,0,1,7.49,3.25Z" style="fill:#fff"></path><polygon points="277.69 397.15 268.53 397.15 306.92 123.26 316.09 123.26 277.69 397.15" style="fill:#fff"></polygon></g><g style="opacity:0.8"><ellipse cx="329.06" cy="226.41" rx="53.44" ry="49.84" transform="translate(-64.93 292.12) rotate(-44)" style="fill:#fff"></ellipse></g><path d="M325.69,270.44c-24.25,0-42.61-19.74-40.91-44s22.81-44,47.07-44,42.61,19.74,40.91,44S350,270.44,325.69,270.44Zm6-85.24c-22.74,0-42.53,18.5-44.12,41.25s15.61,41.24,38.36,41.24,42.53-18.5,44.12-41.24S354.39,185.2,331.65,185.2Z" style="fill:#37474F"></path><path d="M322.29,214.68l.63-9.07a9,9,0,0,1,8.8-8.22h0a7.56,7.56,0,0,1,7.64,8.22l-1.25,17.89a8.94,8.94,0,0,1-8.79,8.22h0a7.57,7.57,0,0,1-7.65-8.22l.62-8.82" style="fill:#37474F"></path><path d="M328.66,241.16a13.68,13.68,0,0,1-13.82-14.85l1-14.47a1.49,1.49,0,0,1,1.47-1.37,1.26,1.26,0,0,1,1.28,1.37l-1,14.47a11.15,11.15,0,0,0,11.26,12.11,13.22,13.22,0,0,0,13-12.11l1-14.47a1.49,1.49,0,0,1,1.47-1.37,1.26,1.26,0,0,1,1.28,1.37l-1,14.47A16.21,16.21,0,0,1,328.66,241.16Z" style="fill:#37474F"></path><path d="M327.38,259.39A1.26,1.26,0,0,1,326.1,258l1.28-18.23a1.49,1.49,0,0,1,1.47-1.37,1.26,1.26,0,0,1,1.28,1.37L328.85,258A1.49,1.49,0,0,1,327.38,259.39Z" style="fill:#37474F"></path><path d="M336.5,259.39H318.27A1.26,1.26,0,0,1,317,258a1.5,1.5,0,0,1,1.47-1.38h18.23A1.27,1.27,0,0,1,338,258,1.5,1.5,0,0,1,336.5,259.39Z" style="fill:#37474F"></path><path d="M404.48,191.11h0a.5.5,0,0,1-.47-.53l2-35.52a.5.5,0,0,1,.53-.48.52.52,0,0,1,.47.53l-2,35.53A.49.49,0,0,1,404.48,191.11Z" style="fill:#37474F"></path><path d="M406.84,148.77h0a.49.49,0,0,1-.47-.52l.52-9.38a.51.51,0,0,1,.53-.47.5.5,0,0,1,.47.53l-.52,9.37A.5.5,0,0,1,406.84,148.77Z" style="fill:#37474F"></path></g><g id="freepik--speech-bubble--inject-130"><g id="freepik--freepik--speech-bubbles--inject-120--inject-130"><path d="M265.35,80.77l-2.44,35.51a4,4,0,0,1-.09.67,5,5,0,0,1-4.9,3.9l-8.08,0c.86,5,7.07,11.81,7.07,11.81s-11.77-1.66-18.27-11.88l-57.86-.35a4.31,4.31,0,0,1-4.36-4.63l2.43-35.51a4.91,4.91,0,0,1,.08-.67,5.06,5.06,0,0,1,4.91-3.91l77.15.46A4.33,4.33,0,0,1,265.35,80.77Z" style="fill:#fff"></path><path d="M258.22,133.31l-1.38-.19c-.12,0-11.9-1.79-18.48-11.89l-57.58-.34a5,5,0,0,1-3.57-1.53,4.9,4.9,0,0,1-1.29-3.62l2.43-35.53a3.86,3.86,0,0,1,.1-.74,5.58,5.58,0,0,1,5.41-4.3l77.13.46a4.84,4.84,0,0,1,4.86,5.16v0l-2.44,35.5a3.86,3.86,0,0,1-.1.74,5.53,5.53,0,0,1-5.41,4.3l-7.44,0c1.18,4.77,6.76,10.91,6.82,11ZM183.69,76.17a4.55,4.55,0,0,0-4.27,3.51,4.12,4.12,0,0,0-.07.59l-2.43,35.52a3.9,3.9,0,0,0,1,2.89,4,4,0,0,0,2.85,1.21l58.12.35.15.23c5,7.83,13.22,10.56,16.5,11.36-1.81-2.16-5.54-7-6.21-10.94l-.1-.59,8.67,0a4.53,4.53,0,0,0,4.41-3.51,2.89,2.89,0,0,0,.08-.59l2.44-35.51A3.84,3.84,0,0,0,261,76.63l-77.14-.46Z" style="fill:#37474F"></path></g><rect x="186.5" y="87.06" width="68.79" height="1" style="fill:#37474F"></rect><rect x="185.85" y="96.87" width="68.79" height="1" style="fill:#37474F"></rect><rect x="185.21" y="106.68" width="68.79" height="1" style="fill:#37474F"></rect></g><g id="freepik--Voice--inject-130"><path d="M171.7,142.69a.5.5,0,0,1-.23-.95l9.43-5a.5.5,0,0,1,.68.21.49.49,0,0,1-.21.67l-9.43,5A.53.53,0,0,1,171.7,142.69Z" style="fill:#37474F"></path><path d="M183.74,147H173.23a.51.51,0,0,1-.5-.5.5.5,0,0,1,.5-.5h10.51a.5.5,0,0,1,.5.5A.51.51,0,0,1,183.74,147Z" style="fill:#37474F"></path><path d="M180.81,156.33a.46.46,0,0,1-.23-.06l-1.37-.73a.5.5,0,1,1,.47-.88l1.37.72a.51.51,0,0,1,.2.68A.5.5,0,0,1,180.81,156.33Z" style="fill:#37474F"></path><path d="M177.37,154.49a.53.53,0,0,1-.24-.06l-6-3.2a.5.5,0,1,1,.47-.88l6,3.2a.49.49,0,0,1,.21.67A.5.5,0,0,1,177.37,154.49Z" style="fill:#37474F"></path><path d="M206.25,152.65a.5.5,0,0,1-.45-.26l-5-9.44a.49.49,0,0,1,.21-.67.49.49,0,0,1,.67.2l5,9.44a.5.5,0,0,1-.21.67A.46.46,0,0,1,206.25,152.65Z" style="fill:#37474F"></path><path d="M210.55,151.12a.5.5,0,0,1-.5-.5v-10.5a.5.5,0,0,1,.5-.5.5.5,0,0,1,.5.5v10.5A.5.5,0,0,1,210.55,151.12Z" style="fill:#37474F"></path><path d="M219.16,144.91a.53.53,0,0,1-.24-.06.49.49,0,0,1-.2-.67l.72-1.37a.5.5,0,0,1,.68-.21.51.51,0,0,1,.21.68l-.73,1.37A.52.52,0,0,1,219.16,144.91Z" style="fill:#37474F"></path><path d="M214.85,153a.46.46,0,0,1-.23-.06.5.5,0,0,1-.21-.68l3.2-6a.49.49,0,0,1,.67-.2.49.49,0,0,1,.21.67l-3.2,6A.51.51,0,0,1,214.85,153Z" style="fill:#37474F"></path></g></svg>